<svg width="97" height="22" viewBox="0 0 97 22" fill="none" xmlns="http://www.w3.org/2000/svg">
<path d="M1.3042 8.12315L9.91309 8.12487L15.1479 8.12577V2.93262L1.3042 8.12315Z" fill="#FF9D28"/>
<path d="M15.1479 2.93266V21.2671L21.6861 0.480469L15.1479 2.93266Z" fill="#68C5ED"/>
<path d="M15.1474 8.12589L9.9126 8.125L15.1474 21.2672V8.12589Z" fill="#044D80"/>
<path d="M1.3042 8.12305L11.2555 11.4969L9.91309 8.12477L1.3042 8.12305Z" fill="#E54747"/>
<path d="M33.0177 16.4406C32.9418 16.5166 32.8153 16.6114 32.6385 16.7253C32.4613 16.8393 32.2308 16.9532 31.9464 17.0672C31.662 17.181 31.3141 17.279 30.9035 17.3615C30.4925 17.4436 30.0218 17.4849 29.4908 17.4849C28.4668 17.4849 27.5818 17.3202 26.8361 16.9913C26.09 16.6624 25.4738 16.2031 24.9873 15.6147C24.5005 15.026 24.1435 14.3299 23.916 13.5259C23.6884 12.7221 23.5747 11.8393 23.5747 10.8771C23.5747 9.9153 23.6979 9.02582 23.9445 8.20935C24.1909 7.39283 24.5607 6.68739 25.0536 6.09215C25.5467 5.49735 26.163 5.03208 26.9025 4.69651C27.642 4.36133 28.511 4.19336 29.5098 4.19336C30.0028 4.19336 30.4484 4.23781 30.8466 4.32626C31.2448 4.4149 31.5924 4.51942 31.8896 4.63957C32.1864 4.76003 32.433 4.88636 32.6291 5.01932C32.8249 5.15222 32.9734 5.26325 33.0747 5.35157C33.1885 5.4531 33.2863 5.57324 33.3686 5.71233C33.4507 5.85179 33.4919 6.0037 33.4919 6.1681C33.4919 6.42146 33.397 6.67451 33.2075 6.92762C33.0179 7.18098 32.8092 7.41515 32.5816 7.63018C32.4299 7.47828 32.2593 7.32344 32.0697 7.16504C31.8801 7.00682 31.6683 6.86773 31.4345 6.74727C31.2004 6.62713 30.9349 6.52592 30.638 6.44346C30.3409 6.36126 30.0091 6.32 29.6426 6.32C28.9979 6.32 28.4575 6.44997 28.0213 6.70926C27.5852 6.96888 27.2344 7.30737 26.9689 7.72514C26.7035 8.1429 26.5139 8.62081 26.4001 9.15872C26.2863 9.69688 26.2294 10.2443 26.2294 10.8012C26.2294 11.3963 26.2863 11.9659 26.4001 12.51C26.5138 13.0544 26.7096 13.5355 26.9879 13.9531C27.2658 14.3708 27.6294 14.7064 28.0782 14.9594C28.5267 15.2128 29.0861 15.3392 29.7563 15.3392C30.11 15.3392 30.4357 15.295 30.7329 15.2064C31.0297 15.1179 31.2922 15.0102 31.5198 14.8834C31.7473 14.7571 31.9464 14.6243 32.1171 14.4849C32.2877 14.3456 32.4299 14.2255 32.5437 14.124C32.6196 14.2128 32.7079 14.3205 32.8092 14.4469C32.911 14.5746 33.006 14.7077 33.0936 14.8456C33.1819 14.9851 33.2578 15.1242 33.3211 15.2632C33.3842 15.4028 33.4159 15.5291 33.4159 15.6429C33.4159 15.8077 33.3842 15.9468 33.3211 16.0607C33.2577 16.1747 33.1566 16.3014 33.0177 16.4406ZM42.7896 14.9843C42.7896 15.9904 42.9357 16.7227 43.2284 17.1811C42.9995 17.2701 42.7864 17.3339 42.5893 17.3721C42.392 17.4103 42.1855 17.4293 41.9693 17.4293C41.5116 17.4293 41.1649 17.3402 40.9297 17.1619C40.6943 16.9838 40.5449 16.7291 40.4815 16.3978C40.2015 16.6911 39.8328 16.9393 39.375 17.1431C38.9172 17.3464 38.3574 17.4486 37.6963 17.4486C37.3529 17.4486 37.0096 17.4009 36.6662 17.306C36.3228 17.2103 36.0111 17.0551 35.7314 16.8396C35.4515 16.6236 35.2227 16.3348 35.0447 15.9729C34.8664 15.6111 34.7776 15.1701 34.7776 14.6497C34.7776 14.0023 34.9332 13.4753 35.245 13.0692C35.5565 12.6628 35.9475 12.3424 36.4182 12.1074C36.8886 11.8728 37.3974 11.7112 37.9443 11.6221C38.491 11.5332 38.9935 11.4762 39.4513 11.4505C39.604 11.438 39.7533 11.4314 39.8996 11.4314H40.3098V11.0837C40.3098 10.5942 40.1792 10.2465 39.9187 10.0405C39.6578 9.83456 39.2349 9.73132 38.6501 9.73132C38.1032 9.73132 37.6167 9.82054 37.1908 9.99871C36.7645 10.1772 36.3481 10.3808 35.9413 10.61C35.763 10.3936 35.6199 10.1549 35.5121 9.89368C35.4039 9.63286 35.3499 9.43855 35.3499 9.31107C35.3499 9.13289 35.4482 8.96096 35.6456 8.79528C35.8426 8.62999 36.113 8.48013 36.4564 8.3464C36.7998 8.21267 37.1938 8.10464 37.6392 8.02168C38.0841 7.93896 38.5548 7.89751 39.0508 7.89751C39.7375 7.89751 40.3193 7.96766 40.7962 8.10764C41.2731 8.24794 41.661 8.46431 41.9599 8.75709C42.2586 9.05024 42.4717 9.41616 42.5989 9.85548C42.7259 10.2949 42.7897 10.8076 42.7897 11.3932L42.7896 14.9843ZM40.3478 12.7685H40.0808C39.9916 12.7685 39.9025 12.7751 39.8137 12.7877C39.4956 12.8133 39.1808 12.8515 38.8695 12.9022C38.5577 12.9532 38.281 13.0424 38.0397 13.1697C37.7979 13.2971 37.6009 13.4628 37.4483 13.6663C37.2957 13.8701 37.2194 14.1313 37.2194 14.4496C37.2194 14.8062 37.321 15.1084 37.5245 15.3568C37.7278 15.6052 38.0712 15.7294 38.5547 15.7294C38.7961 15.7294 39.0251 15.6978 39.2415 15.6337C39.4575 15.5703 39.6483 15.4875 39.8137 15.3856C39.9789 15.2837 40.1094 15.1723 40.2048 15.0512C40.3002 14.9303 40.3479 14.819 40.3479 14.717L40.3478 12.7685ZM47.5393 9.00535C47.742 8.76359 48.0592 8.51826 48.4901 8.26987C48.9211 8.02155 49.4663 7.89739 50.1256 7.89739C50.5948 7.89739 51.0416 7.97704 51.4665 8.13614C51.8909 8.29551 52.2682 8.55346 52.5978 8.90982C52.9275 9.26649 53.1905 9.73776 53.3872 10.3234C53.5837 10.9093 53.682 11.629 53.682 12.4819C53.682 13.4752 53.5677 14.2936 53.3396 14.9366C53.1112 15.5799 52.8167 16.0893 52.4556 16.4649C52.0942 16.8405 51.6915 17.1048 51.248 17.2575C50.8042 17.4103 50.3603 17.4869 49.9168 17.4869C49.5491 17.4869 49.2288 17.4454 48.9565 17.3627C48.6837 17.2797 48.4524 17.1877 48.2623 17.0857C48.0721 16.9839 47.9264 16.8822 47.8251 16.78C47.7237 16.6782 47.6602 16.608 47.6349 16.5698V21.2656H45.0405V8.16478C45.1043 8.15228 45.1812 8.13946 45.2712 8.12664C45.3481 8.11414 45.4378 8.10451 45.5403 8.09795C45.6428 8.0917 45.7646 8.08844 45.9054 8.08844C46.3281 8.08844 46.687 8.15859 46.9817 8.29857C47.2764 8.43887 47.4625 8.67431 47.5393 9.00535ZM50.9731 12.5392C50.9731 12.1572 50.9415 11.8008 50.8783 11.4695C50.8151 11.1386 50.7108 10.852 50.5653 10.61C50.4199 10.3681 50.2237 10.1801 49.9772 10.0463C49.7304 9.91268 49.4303 9.84592 49.0764 9.84592C48.5453 9.84592 48.1755 9.94795 47.9667 10.1514C47.7581 10.3553 47.6538 10.5783 47.6538 10.8201V14.8698C47.7548 14.9718 47.9348 15.0926 48.1941 15.2327C48.4535 15.373 48.7536 15.4427 49.0952 15.4427C49.7402 15.4427 50.2144 15.1883 50.5179 14.6788C50.8214 14.1695 50.9731 13.4561 50.9731 12.5392ZM55.6843 15.8249C55.5952 15.5703 55.538 15.3028 55.5127 15.0225C55.4871 14.7425 55.4745 14.4624 55.4745 14.1819V5.31854C55.5633 5.30604 55.6587 5.29322 55.7606 5.28034C55.8494 5.26784 55.9448 5.25834 56.0467 5.25171C56.1484 5.24546 56.2501 5.24221 56.3519 5.24221C56.5552 5.24221 56.7589 5.26134 56.9624 5.29947C57.1656 5.33773 57.3501 5.41413 57.5157 5.52867C57.6809 5.64326 57.8143 5.79944 57.9162 5.99668C58.0179 6.19425 58.0688 6.4522 58.0688 6.77029V8.12651H60.7396V10.056H58.0688V14.1295C58.0688 15.0178 58.4312 15.4619 59.1562 15.4619C59.3342 15.4619 59.5025 15.4334 59.6617 15.3759C59.8206 15.3186 59.9637 15.2551 60.091 15.185C60.218 15.115 60.3294 15.0417 60.4248 14.9653C60.5202 14.8888 60.5869 14.8316 60.625 14.7934C60.8158 15.0738 60.9619 15.3164 61.0638 15.5212C61.1655 15.7262 61.2164 15.9186 61.2164 16.0984C61.2164 16.2656 61.1498 16.4297 61.0161 16.5902C60.8824 16.7508 60.6948 16.8989 60.4533 17.0338C60.2117 17.1686 59.9193 17.2779 59.5758 17.3615C59.2325 17.4451 58.8572 17.4869 58.4503 17.4869C57.6616 17.4869 57.0481 17.334 56.6094 17.0285C56.1707 16.7227 55.8622 16.3215 55.6843 15.8249ZM67.3103 15.5765C67.6292 15.5765 67.91 15.5416 68.1527 15.4714C68.395 15.4017 68.6119 15.3156 68.8034 15.2137C68.9947 15.112 69.1608 15.0005 69.3012 14.8794C69.4415 14.7585 69.5691 14.6471 69.6842 14.545C69.8372 14.736 69.9966 14.9814 70.1626 15.2804C70.3285 15.5799 70.4115 15.8249 70.4115 16.0158C70.4115 16.2961 70.2524 16.5508 69.9347 16.78C69.6676 16.9839 69.289 17.159 68.7997 17.3052C68.3099 17.4516 67.7343 17.5249 67.0733 17.5249C66.4752 17.5249 65.8871 17.4486 65.3087 17.2957C64.7299 17.143 64.2147 16.8755 63.7635 16.4934C63.3119 16.1115 62.9462 15.599 62.6665 14.9558C62.3867 14.3127 62.2469 13.501 62.2469 12.5202C62.2469 11.7178 62.3709 11.0272 62.6187 10.4476C62.8668 9.86824 63.1974 9.38746 63.611 9.00541C64.024 8.62336 64.4914 8.3434 65.0129 8.16484C65.5343 7.98673 66.0685 7.89745 66.6154 7.89745C67.3275 7.89745 67.9316 8.00911 68.4276 8.23174C68.9237 8.45468 69.3272 8.75402 69.639 9.12957C69.9504 9.50525 70.1761 9.93507 70.3161 10.419C70.4558 10.9031 70.526 11.4123 70.526 11.9471V12.2145C70.526 12.3167 70.5227 12.4246 70.5164 12.5392C70.5099 12.654 70.5037 12.7656 70.4974 12.8735C70.4908 12.982 70.4812 13.0678 70.4689 13.1315H64.8412C64.8923 13.8319 65.1092 14.4145 65.492 14.8794C65.8745 15.3444 66.4807 15.5765 67.3103 15.5765ZM68.1796 11.6987C68.1796 11.0875 68.0611 10.5908 67.8245 10.2088C67.5879 9.82678 67.1624 9.63566 66.5488 9.63566C66.0241 9.63566 65.6053 9.81722 65.2921 10.1801C64.9785 10.5431 64.8221 11.0493 64.8221 11.6987L68.1796 11.6987ZM75.0408 9.05362C75.117 8.93998 75.2187 8.81371 75.346 8.67457C75.4729 8.53554 75.6288 8.40921 75.8133 8.29557C75.9976 8.18187 76.2011 8.08691 76.4238 8.01115C76.6461 7.93533 76.8846 7.89745 77.1392 7.89745C77.2918 7.89745 77.454 7.91027 77.6256 7.93533C77.7973 7.96071 77.9561 8.00816 78.1024 8.07741C78.2486 8.14699 78.3664 8.24156 78.4554 8.36158C78.5442 8.48159 78.5889 8.62993 78.5889 8.80664C78.5889 9.08449 78.5188 9.4036 78.3791 9.76384C78.239 10.1244 78.0993 10.4318 77.9595 10.6864C77.743 10.5082 77.5269 10.3713 77.3108 10.2757C77.0945 10.1803 76.8401 10.1324 76.5477 10.1324C76.1535 10.1324 75.8229 10.2474 75.5559 10.4772C75.2886 10.707 75.1552 10.9816 75.1552 11.3009V17.4848H72.5609V8.16478C72.6244 8.15228 72.7006 8.13946 72.7897 8.12664C72.866 8.11414 72.955 8.10451 73.0568 8.09795C73.1585 8.0917 73.2792 8.08844 73.4193 8.08844C73.8261 8.08844 74.179 8.16746 74.478 8.32516C74.7766 8.48268 74.9645 8.72565 75.0408 9.05362ZM82.4169 9.05362C82.4932 8.93998 82.5948 8.81371 82.7221 8.67457C82.8491 8.53554 83.005 8.40921 83.1895 8.29557C83.3737 8.18187 83.5772 8.08691 83.7999 8.01115C84.0223 7.93533 84.2607 7.89745 84.5153 7.89745C84.6678 7.89745 84.8299 7.91027 85.0016 7.93533C85.1733 7.96071 85.3322 8.00816 85.4786 8.07741C85.6247 8.14699 85.7423 8.24156 85.8316 8.36158C85.9204 8.48159 85.9651 8.62993 85.9651 8.80664C85.9651 9.08449 85.8949 9.4036 85.7553 9.76384C85.615 10.1244 85.4753 10.4318 85.3355 10.6864C85.1193 10.5082 84.9029 10.3713 84.6869 10.2757C84.4706 10.1803 84.2163 10.1324 83.9239 10.1324C83.5296 10.1324 83.199 10.2474 82.932 10.4772C82.6649 10.707 82.5314 10.9816 82.5314 11.3009V17.4848H79.937V8.16478C80.0005 8.15228 80.0768 8.13946 80.166 8.12664C80.2423 8.11414 80.3312 8.10451 80.433 8.09795C80.5346 8.0917 80.6553 8.08844 80.7953 8.08844C81.2024 8.08844 81.5552 8.16746 81.854 8.32516C82.1527 8.48268 82.3405 8.72565 82.4169 9.05362ZM94.7975 14.9843C94.7975 15.9904 94.9436 16.7227 95.2363 17.1811C95.0073 17.2701 94.7942 17.3339 94.5972 17.3721C94.4 17.4103 94.1934 17.4293 93.9773 17.4293C93.5193 17.4293 93.1728 17.3402 92.9376 17.1619C92.7021 16.9838 92.5528 16.7291 92.4892 16.3978C92.2095 16.6911 91.8407 16.9393 91.3829 17.1431C90.9251 17.3464 90.3652 17.4486 89.7042 17.4486C89.3607 17.4486 89.0175 17.4009 88.674 17.306C88.3307 17.2103 88.0188 17.0551 87.7393 16.8396C87.4594 16.6236 87.2305 16.3348 87.0525 15.9729C86.8743 15.6111 86.7856 15.1701 86.7856 14.6497C86.7856 14.0023 86.941 13.4753 87.2529 13.0692C87.5643 12.6628 87.9555 12.3424 88.4261 12.1074C88.8964 11.8728 89.4051 11.7112 89.9522 11.6221C90.4988 11.5332 91.0014 11.4762 91.4592 11.4505C91.6119 11.438 91.7611 11.4314 91.9076 11.4314H92.3177V11.0837C92.3177 10.5942 92.1871 10.2465 91.9265 10.0405C91.6656 9.83456 91.2428 9.73132 90.6579 9.73132C90.1111 9.73132 89.6247 9.82054 89.1987 9.99871C88.7724 10.1772 88.3561 10.3808 87.9491 10.61C87.771 10.3936 87.6277 10.1549 87.5199 9.89368C87.4118 9.63286 87.3578 9.43855 87.3578 9.31107C87.3578 9.13289 87.4562 8.96096 87.6535 8.79528C87.8505 8.62999 88.1209 8.48013 88.4642 8.3464C88.8077 8.21267 89.2017 8.10464 89.6469 8.02168C90.092 7.93896 90.5626 7.89751 91.0586 7.89751C91.7453 7.89751 92.3272 7.96766 92.8041 8.10764C93.2809 8.24794 93.6687 8.46431 93.9677 8.75709C94.2663 9.05024 94.4794 9.41616 94.6068 9.85548C94.7337 10.2949 94.7975 10.8076 94.7975 11.3932V14.9843ZM92.3557 12.7685H92.0887C91.9995 12.7685 91.9104 12.7751 91.8216 12.7877C91.5037 12.8133 91.1887 12.8515 90.8773 12.9022C90.5655 12.9532 90.289 13.0424 90.0475 13.1697C89.8058 13.2971 89.6087 13.4628 89.4562 13.6663C89.3036 13.8701 89.2272 14.1313 89.2272 14.4496C89.2272 14.8062 89.3289 15.1084 89.5324 15.3568C89.7357 15.6052 90.0792 15.7294 90.5626 15.7294C90.8041 15.7294 91.033 15.6978 91.2494 15.6337C91.4655 15.5703 91.6562 15.4875 91.8216 15.3856C91.9866 15.2837 92.1174 15.1723 92.2127 15.0512C92.3081 14.9303 92.3558 14.819 92.3558 14.717L92.3557 12.7685Z" fill="#044D80"/>
</svg>
