<svg width="180" height="36" viewBox="0 0 180 36" fill="none" xmlns="http://www.w3.org/2000/svg">
<path d="M166.401 34.1016V30.7537H168.523C169.041 30.7537 169.42 30.674 169.659 30.5146C169.918 30.3751 170.117 30.116 170.257 29.7374L170.586 28.8107H169.36L163.74 13.5957H168.314L171.99 24.6259L175.428 13.5957H180.001L173.844 31.1423C173.485 32.1985 172.967 32.9558 172.289 33.4141C171.612 33.8725 170.665 34.1016 169.45 34.1016H166.401Z" fill="#2E353A"/>
<path d="M153.449 29.6179V13.3865C153.449 11.7923 153.877 10.5667 154.734 9.70978C155.591 8.83295 156.926 8.39453 158.74 8.39453H162.147V11.7424H159.696C159.078 11.7424 158.63 11.9019 158.351 12.2207C158.072 12.5196 157.933 12.978 157.933 13.5957V29.6179H153.449ZM151.117 17.5415V14.1936H161.908V17.5415H151.117Z" fill="#2E353A"/>
<path d="M144.155 29.6182V13.596H148.639V29.6182H144.155ZM144.065 11.6232V8.03613H148.699V11.6232H144.065Z" fill="#2E353A"/>
<path d="M137.626 29.6186C135.971 29.6186 134.756 29.24 133.979 28.4827C133.201 27.7055 132.813 26.4799 132.813 24.806V9.83008H137.297V24.2679C137.297 25.0451 137.456 25.5732 137.775 25.8522C138.114 26.1312 138.612 26.2707 139.27 26.2707H141.511V29.6186H137.626ZM130.242 16.9444V13.5965H141.511V16.9444H130.242Z" fill="#2E353A"/>
<path d="M118.736 29.9765C117.082 29.9765 115.786 29.4484 114.85 28.3923C113.933 27.3161 113.475 25.8215 113.475 23.9084V13.5957H117.958V22.8622C117.958 24.0978 118.148 25.0045 118.526 25.5824C118.905 26.1404 119.503 26.4194 120.32 26.4194C121.237 26.4194 121.944 26.1105 122.442 25.4927C122.96 24.855 123.219 23.9084 123.219 22.653V13.5957H127.703V29.6178H123.608L123.488 25.0145L124.056 25.134C123.817 26.7283 123.249 27.9339 122.353 28.751C121.456 29.568 120.25 29.9765 118.736 29.9765Z" fill="#2E353A"/>
<path d="M104.028 29.9766C102.912 29.9766 101.936 29.7374 101.099 29.2592C100.282 28.7809 99.6439 28.1133 99.1855 27.2564L99.0958 29.6179H94.8213V8.39453H99.3051V15.8675C99.7236 15.1302 100.341 14.5124 101.158 14.0142C101.975 13.4961 102.932 13.237 104.028 13.237C105.383 13.237 106.559 13.5858 107.555 14.2833C108.552 14.9608 109.319 15.9273 109.857 17.1828C110.415 18.4382 110.694 19.9129 110.694 21.6068C110.694 23.3007 110.415 24.7754 109.857 26.0308C109.319 27.2863 108.552 28.2628 107.555 28.9602C106.559 29.6378 105.383 29.9766 104.028 29.9766ZM102.773 26.539C103.769 26.539 104.566 26.1105 105.164 25.2536C105.782 24.3768 106.091 23.1612 106.091 21.6068C106.091 20.0524 105.792 18.8468 105.194 17.9899C104.596 17.113 103.799 16.6746 102.802 16.6746C102.065 16.6746 101.427 16.8739 100.889 17.2725C100.371 17.6511 99.9727 18.2091 99.6937 18.9464C99.4346 19.6837 99.3051 20.5705 99.3051 21.6068C99.3051 22.6231 99.4346 23.5 99.6937 24.2373C99.9727 24.9746 100.371 25.5426 100.889 25.9411C101.427 26.3397 102.055 26.539 102.773 26.539Z" fill="#2E353A"/>
<path d="M84.2183 29.9768C82.5842 29.9768 81.1594 29.6381 79.9437 28.9605C78.7481 28.263 77.8114 27.2866 77.1339 26.0311C76.4763 24.7756 76.1475 23.301 76.1475 21.6071C76.1475 19.9132 76.4763 18.4485 77.1339 17.2129C77.8114 15.9575 78.7481 14.981 79.9437 14.2835C81.1394 13.586 82.5543 13.2373 84.1884 13.2373C85.7827 13.2373 87.1677 13.586 88.3434 14.2835C89.5192 14.981 90.4259 15.9774 91.0636 17.2727C91.7212 18.568 92.05 20.1125 92.05 21.906V22.8028H80.7807C80.8405 24.0781 81.1793 25.0247 81.7971 25.6425C82.4347 26.2603 83.2717 26.5691 84.308 26.5691C85.0652 26.5691 85.693 26.4097 86.1912 26.0909C86.7093 25.772 87.078 25.2838 87.2972 24.6262L91.8109 24.8952C91.3924 26.4894 90.5056 27.7349 89.1505 28.6317C87.7954 29.5285 86.1513 29.9768 84.2183 29.9768ZM80.7807 20.0527H87.4466C87.3869 18.8769 87.058 18.0001 86.4602 17.4222C85.8823 16.8443 85.125 16.5553 84.1884 16.5553C83.2518 16.5553 82.4746 16.8642 81.8568 17.482C81.259 18.0798 80.9003 18.9367 80.7807 20.0527Z" fill="#2E353A"/>
<path d="M55.5352 29.6179V8.39453H62.8587C66.3062 8.39453 68.9567 9.32118 70.81 11.1745C72.6633 13.0079 73.5899 15.6284 73.5899 19.0361C73.5899 22.4239 72.6732 25.0344 70.8399 26.8678C69.0264 28.7012 66.4258 29.6179 63.0381 29.6179H55.5352ZM60.0787 25.7917H62.8587C64.9113 25.7917 66.4258 25.2437 67.4023 24.1476C68.3987 23.0317 68.8969 21.3178 68.8969 19.0062C68.8969 16.6945 68.3987 14.9907 67.4023 13.8947C66.4258 12.7787 64.9113 12.2207 62.8587 12.2207H60.0787V25.7917Z" fill="#2E353A"/>
<path d="M48.4547 12.5416C47.9026 15.4401 46.2523 18.0935 43.8088 20.0126C43.7078 20.0919 43.6114 20.1645 43.5182 20.2339C44.0221 21.5276 44.2777 22.8953 44.2777 24.3026C44.2777 30.4885 39.2448 35.5214 33.0583 35.5214C30.6135 35.5214 28.2427 34.721 26.3018 33.2529C26.4431 33.0845 26.5804 32.9121 26.7138 32.7371C27.6113 31.5563 28.3113 30.2501 28.7934 28.8547C29.9465 29.9357 31.4654 30.5446 33.0576 30.5446C36.5002 30.5446 39.301 27.7445 39.301 24.3026C39.301 23.0201 38.9153 21.7884 38.1862 20.7417L36.5022 18.3247L39.1669 17.0686C39.717 16.8091 40.244 16.4828 40.7347 16.0978C43.7236 13.7514 44.5802 9.83464 42.6439 7.36675C41.6757 6.13511 40.1707 5.45623 38.4055 5.45623C35.3577 5.45623 33.08 7.32844 31.4641 9.50379C30.8413 10.3412 30.3169 11.2235 29.8837 12.0608C29.1619 13.4582 28.5405 15.028 28.0373 16.7259C27.2613 19.3423 26.8162 22.1041 26.8162 24.3026C26.8162 25.5468 26.6128 26.7705 26.2113 27.938C25.8236 29.0667 25.2583 30.1233 24.5326 31.0789C24.0643 31.6944 23.5334 32.2616 22.9549 32.7649C20.9142 34.5426 18.3011 35.5214 15.5967 35.5214C14.5593 35.5214 13.5535 35.38 12.5992 35.1146C7.86353 33.8004 4.3773 29.451 4.3773 24.3026C4.3773 22.8953 4.63287 21.5276 5.13742 20.2339C5.03638 20.1593 4.94062 20.086 4.84685 20.012C2.40272 18.0935 0.753055 15.4401 0.200965 12.5409C-0.375559 9.51567 0.298045 6.58682 2.09696 4.29459C4.00088 1.87028 6.97266 0.479492 10.2495 0.479492C13.1401 0.479492 15.8028 1.44367 18.1644 3.34428C19.9144 4.75224 21.465 6.65616 22.7812 9.01047C22.3301 9.92247 21.9088 10.8913 21.5271 11.8951C21.0556 13.1333 20.6461 14.4145 20.3034 15.7254C19.8636 14.4099 19.3504 13.1809 18.7713 12.0602C17.2141 9.04745 14.4714 5.45556 10.2495 5.45556C8.4843 5.45556 6.9786 6.13445 6.01112 7.36675C4.0755 9.83398 4.93204 13.7508 7.92098 16.0972C8.411 16.4822 8.93865 16.8084 9.48876 17.0679L12.1535 18.324L10.4694 20.7411C9.74037 21.7884 9.3547 23.0194 9.3547 24.3019C9.3547 26.6582 10.6676 28.714 12.5999 29.7759C13.4901 30.2653 14.5117 30.544 15.5974 30.544C17.4293 30.544 19.1635 29.7389 20.3556 28.3363C21.3131 27.209 21.8401 25.7759 21.8401 24.3019C21.8401 23.236 21.9293 21.4767 22.3526 19.1449C22.7468 16.9702 23.3313 14.8596 24.0888 12.8705C24.4678 11.8759 24.8878 10.919 25.3376 10.0281L25.3561 9.99116C25.3917 9.91917 25.428 9.84785 25.465 9.77587C25.9432 8.85065 26.455 7.99016 26.9991 7.19505C28.0492 5.65963 29.2181 4.37054 30.4933 3.34428C32.8542 1.44301 35.5169 0.479492 38.4081 0.479492C41.685 0.479492 44.6568 1.86962 46.5607 4.29393L46.6155 4.36525C48.3721 6.64692 49.0253 9.54671 48.4547 12.5416Z" fill="#7559FF"/>
</svg>
