<svg width="155" height="80" viewBox="0 0 155 80" fill="none" xmlns="http://www.w3.org/2000/svg">
<g clip-path="url(#clip0_1842_1656)">
<rect width="155" height="80"/>
<path d="M44.5186 25.149C44.5012 25.0405 44.4482 24.9408 44.3679 24.8656C44.2877 24.7905 44.1847 24.7442 44.0752 24.7339C43.8981 24.7056 40.0094 24.4364 40.0094 24.4364L37.0443 21.4714C36.778 21.1739 36.1858 21.2617 35.962 21.324C35.9336 21.324 35.3698 21.5011 34.4504 21.8C33.5551 19.2132 31.9712 16.8389 29.1832 16.8389H28.9452C28.1448 15.8047 27.1673 15.3273 26.3386 15.3273C19.8446 15.3556 16.7477 23.4561 15.7702 27.5956L11.2312 28.9882C9.83863 29.4316 9.78622 29.4642 9.60205 30.7916L5.77563 60.305L34.4603 65.6742L50.0068 62.3224C50.0068 62.294 44.5484 25.4324 44.5201 25.1519L44.5186 25.149ZM32.8595 22.2987C32.137 22.5367 31.3011 22.7747 30.4285 23.0424V22.5084C30.4568 21.1739 30.2542 19.845 29.8363 18.5757C31.2898 18.7995 32.2673 20.4315 32.8595 22.2987ZM28.0853 18.9185C28.5599 20.3168 28.7936 21.7901 28.7341 23.2677V23.534L23.7191 25.0924C24.7009 21.4274 26.51 19.6155 28.0825 18.9341L28.0853 18.9185ZM26.1586 17.1151C26.4561 17.1222 26.7437 17.2143 26.9888 17.3814C24.8964 18.3561 22.685 20.8154 21.7358 25.7398L17.7691 26.9553C18.8883 23.2181 21.4992 17.1066 26.1558 17.1066L26.1586 17.1151Z" fill="#95BF47"/>
<path d="M44.0767 24.7325C43.8996 24.7042 40.0109 24.435 40.0109 24.435L37.0458 21.4699C36.9367 21.3566 36.788 21.2943 36.6307 21.2928L34.4661 65.6685L50.0126 62.3167L44.5216 25.1745C44.4847 24.9478 44.3062 24.7665 44.0781 24.7311L44.0767 24.7325Z" fill="#5E8E3E"/>
<path d="M29.1818 33.3345L27.2523 39.0295C26.0864 38.4629 24.81 38.1611 23.5152 38.137C20.4877 38.137 20.3418 40.0354 20.3418 40.5114C20.3418 43.1039 27.1347 44.1012 27.1347 50.2127C27.1347 55.018 24.079 58.1035 19.9848 58.1035C15.0605 58.1035 12.5388 55.0478 12.5388 55.0478L13.8478 50.6845C13.8478 50.6845 16.4262 52.9086 18.6248 52.9086C18.8876 52.919 19.1498 52.8759 19.3954 52.7818C19.641 52.6878 19.8649 52.5448 20.0536 52.3616C20.2423 52.1783 20.3917 51.9587 20.4929 51.7159C20.5941 51.4731 20.6449 51.2124 20.6422 50.9494C20.6422 47.5352 15.0647 47.3879 15.0647 41.8119C15.0647 37.1227 18.4449 32.554 25.2392 32.554C27.9097 32.5936 29.1861 33.3331 29.1861 33.3331L29.1818 33.3345Z" fill="white"/>
<path d="M63.5048 41.8175C62.3956 41.2225 61.8218 40.7082 61.8218 40.0042C61.8218 39.1117 62.601 38.5351 63.8661 38.5351C64.8052 38.5554 65.7313 38.758 66.5932 39.1315L67.616 36.0233C67.616 36.0233 66.6782 35.298 63.9298 35.298C60.0963 35.298 57.433 37.4938 57.433 40.5793C57.433 42.3247 58.6683 43.6677 60.3287 44.6253C61.6702 45.4045 62.142 45.9202 62.142 46.7333C62.142 47.5465 61.4818 48.2251 60.2252 48.2251C58.3737 48.2251 56.6269 47.2674 56.6269 47.2674L55.5417 50.3756C55.5417 50.3756 57.161 51.4608 59.8654 51.4608C63.8037 51.4608 66.6371 49.5227 66.6371 46.0207C66.6583 44.1252 65.2303 42.8049 63.5204 41.8033L63.5048 41.8175ZM79.2213 35.2796C77.2833 35.2796 75.7505 36.1962 74.5775 37.6114L74.5123 37.5902L76.1953 28.7842H71.8107L67.5508 51.21H71.9382L73.4073 43.543C73.9825 40.6473 75.4799 38.8567 76.8782 38.8567C77.8557 38.8567 78.241 39.5168 78.241 40.4759C78.241 41.1276 78.1758 41.775 78.0497 42.4139L76.3894 51.1887H80.7768L82.5023 42.1221C82.6907 41.1828 82.7998 40.2294 82.8211 39.2746C82.7998 36.8039 81.5007 35.3136 79.2227 35.3136L79.2213 35.2796ZM92.7222 35.2796C87.4408 35.2796 83.9473 40.0509 83.9473 45.3379C83.9473 48.7464 86.0553 51.4721 89.9965 51.4721C95.1772 51.4721 98.6863 46.8283 98.6863 41.4138C98.6863 38.2617 96.8347 35.2796 92.7292 35.2796H92.7222ZM90.5688 48.1217C89.0771 48.1217 88.4396 46.8467 88.4396 45.2742C88.4396 42.761 89.7344 38.6512 92.1257 38.6512C93.6798 38.6512 94.1983 39.9928 94.1983 41.2933C94.1927 43.9921 92.895 48.1217 90.5717 48.1217H90.5688ZM109.906 35.2796C106.931 35.2796 105.262 37.8693 105.262 37.8693H105.197L105.457 35.5374H101.571L100.678 41.3528L97.6323 57.4122H102L103.215 50.9153H103.3C103.3 50.9153 104.193 51.4905 105.879 51.4905C111.033 51.4905 114.397 46.2092 114.397 40.8712C114.418 37.9316 113.102 35.2923 109.903 35.2923L109.906 35.2796ZM105.71 48.1854C105.048 48.1986 104.404 47.9711 103.897 47.5451L104.622 43.4339C105.141 40.7068 106.56 38.8751 108.093 38.8751C109.435 38.8751 109.838 40.1104 109.838 41.2834C109.845 44.1408 108.167 48.1868 105.716 48.1868L105.71 48.1854ZM120.684 28.9754C120.013 28.9712 119.367 29.2375 118.895 29.7149C118.423 30.1923 118.161 30.8398 118.187 31.5113C118.187 32.8061 119.018 33.7071 120.259 33.7071H120.324C120.663 33.7205 121.001 33.6645 121.317 33.5423C121.633 33.4202 121.92 33.2346 122.162 32.9969C122.403 32.7593 122.594 32.4747 122.721 32.1607C122.848 31.8467 122.909 31.5099 122.901 31.1713C122.901 29.8963 122.049 28.9754 120.706 28.9754H120.684ZM114.556 51.1675H118.943L121.924 35.6267H117.521M133.104 35.6054H130.04L130.19 34.8801C130.449 33.3883 131.34 32.0468 132.78 32.0468C133.257 32.0469 133.731 32.1186 134.187 32.2593L135.034 28.8267C135.034 28.8267 134.255 28.4442 132.648 28.4442C131.085 28.4053 129.559 28.9263 128.346 29.9133C126.854 31.1883 126.15 33.0214 125.796 34.8758L125.654 35.6012H123.61L122.969 38.902H125.014L122.682 51.1703H127.085L129.417 38.902H132.443L133.038 35.6012L133.104 35.6054ZM143.67 35.6267L139.686 46.3182H139.621L138.536 35.6267H133.912L136.554 49.8953C136.617 50.1392 136.587 50.3981 136.469 50.6207C135.895 51.6789 135.078 52.5842 134.083 53.2627C133.321 53.7869 132.489 54.2034 131.613 54.4981L132.828 58.2239C134.435 57.7937 135.911 56.9716 137.122 55.8312C139.124 53.9555 140.975 51.0598 142.874 47.1187L148.24 35.6182H143.668L143.67 35.6267Z" fill="black"/>
</g>
<defs>
<clipPath id="clip0_1842_1656">
<rect width="155" height="80" fill="white"/>
</clipPath>
</defs>
</svg>
