<svg width="25" height="24" viewBox="0 0 25 24" fill="none" xmlns="http://www.w3.org/2000/svg">
<g clip-path="url(#clip0_3085_6888)">
<path d="M12.7368 24C19.3642 24 24.7368 18.6274 24.7368 12C24.7368 5.37258 19.3642 0 12.7368 0C6.1094 0 0.736816 5.37258 0.736816 12C0.736816 18.6274 6.1094 24 12.7368 24Z" fill="#FF492C"/>
<path d="M17.9304 9.19213H15.8808C15.936 8.87053 16.1352 8.69053 16.5384 8.48653L16.9152 8.29453C17.5896 7.94893 17.9496 7.55773 17.9496 6.91933C17.9496 6.51853 17.7936 6.20173 17.484 5.97373C17.1744 5.74573 16.8096 5.63293 16.3824 5.63293C16.0519 5.62904 15.7275 5.72162 15.4488 5.89933C15.168 6.07213 14.9592 6.29533 14.8296 6.57373L15.4224 7.16893C15.6528 6.70333 15.9864 6.47533 16.4256 6.47533C16.7976 6.47533 17.0256 6.66733 17.0256 6.93373C17.0256 7.15693 16.9152 7.34173 16.488 7.55773L16.2456 7.67533C15.72 7.94173 15.3552 8.24653 15.144 8.59213C14.9328 8.93773 14.8296 9.37213 14.8296 9.89773V10.0417H17.9304V9.19213Z" fill="white"/>
<path d="M17.6573 11.0205H14.2637L12.5669 13.9581H15.9605L17.6573 16.8981L19.3541 13.9581L17.6573 11.0205Z" fill="white"/>
<path d="M12.8592 15.9196C10.6992 15.9196 8.94004 14.1604 8.94004 12.0004C8.94004 9.84035 10.6992 8.08115 12.8592 8.08115L14.2008 5.27555C13.759 5.1877 13.3097 5.14349 12.8592 5.14355C9.07204 5.14355 6.00244 8.21315 6.00244 12.0004C6.00244 15.7876 9.07204 18.8572 12.8592 18.8572C14.3106 18.8599 15.7249 18.3991 16.896 17.542L15.4128 14.9692C14.7033 15.5821 13.7969 15.9194 12.8592 15.9196Z" fill="white"/>
</g>
<defs>
<clipPath id="clip0_3085_6888">
<rect width="24" height="24" fill="white" transform="translate(0.736816)"/>
</clipPath>
</defs>
</svg>
