<svg width="103" height="16" viewBox="0 0 103 16" fill="none" xmlns="http://www.w3.org/2000/svg">
<g clip-path="url(#clip0_3085_6893)">
<path d="M11.1868 8.49873C11.1868 5.52017 10.1246 4.16344 9.56229 3.64882C9.45295 3.55526 9.28113 3.63323 9.29675 3.78917C9.40609 5.47339 7.28174 5.89444 7.28174 8.52992V8.54551C7.28174 10.1517 8.50011 11.4617 9.99966 11.4617C11.4992 11.4617 12.7176 10.1517 12.7176 8.54551V8.52992C12.7176 7.78138 12.4364 7.06403 12.1552 6.53381C12.0928 6.42465 11.9366 6.47144 11.9522 6.565C12.4676 8.84181 11.1868 10.2453 11.1868 8.49873Z" fill="#FF6600"/>
<path d="M7.95336 14.7836C7.89088 14.7836 7.81278 14.7524 7.76592 14.7057L0.81492 7.76608C0.721199 7.67251 0.721199 7.50098 0.81492 7.39181L8.15642 0.0623782C8.20328 0.0311891 8.26576 0 8.32824 0H10.437C10.5619 0 10.64 0.0779727 10.6713 0.155945C10.7025 0.233918 10.7025 0.34308 10.6088 0.436647L3.72028 7.32943C3.5797 7.46979 3.5797 7.68811 3.72028 7.82846L9.17173 13.2865C9.26546 13.3801 9.26546 13.5517 9.17173 13.6608L8.12518 14.7212C8.07832 14.7524 8.01584 14.7836 7.95336 14.7836Z" fill="#FF6600"/>
<path d="M9.34332 16.0004C9.21836 16.0004 9.14026 15.9224 9.10902 15.8444C9.07778 15.7665 9.07778 15.6573 9.1715 15.5637L16.0756 8.67096C16.1381 8.60858 16.185 8.51501 16.185 8.42144C16.185 8.32788 16.1537 8.23431 16.0756 8.17193L10.6086 2.71384C10.5148 2.62028 10.5148 2.44874 10.6086 2.33957L11.6707 1.27914C11.7176 1.23236 11.7801 1.20117 11.8582 1.20117C11.9363 1.20117 11.9831 1.24796 12.03 1.29474L18.9654 8.23431C19.0122 8.28109 19.0435 8.34347 19.0435 8.42144C19.0435 8.49942 19.0122 8.5618 18.9654 8.60858L11.6239 15.938C11.577 15.9848 11.5145 16.016 11.4364 16.016H9.34332V16.0004Z" fill="#FF6600"/>
<path d="M26.8536 4.99006C26.8223 5.05243 26.7755 5.08362 26.6974 5.08362C26.6505 5.08362 26.588 5.05243 26.5099 4.97446C26.4318 4.89649 26.3225 4.81852 26.1975 4.74054C26.0569 4.64698 25.9007 4.569 25.6977 4.50662C25.4946 4.42865 25.2447 4.39746 24.9479 4.39746C24.6511 4.39746 24.4012 4.44425 24.1669 4.52222C23.9482 4.60019 23.7608 4.72495 23.6046 4.8653C23.4484 5.00565 23.339 5.17719 23.2609 5.36432C23.1828 5.55146 23.136 5.75419 23.136 5.95692C23.136 6.23762 23.1984 6.45594 23.3078 6.64308C23.4171 6.81462 23.5733 6.97056 23.7764 7.09532C23.9638 7.22007 24.1825 7.32924 24.4324 7.40721C24.6824 7.50078 24.9323 7.57875 25.1822 7.65672C25.4321 7.73469 25.6821 7.82826 25.932 7.93742C26.1819 8.03099 26.385 8.17134 26.588 8.31169C26.7911 8.45204 26.9317 8.65477 27.0566 8.8731C27.166 9.09142 27.2285 9.37212 27.2285 9.69961C27.2285 10.0427 27.166 10.3546 27.0566 10.6509C26.9473 10.9472 26.7755 11.2123 26.5568 11.4306C26.3381 11.6489 26.0569 11.8205 25.7445 11.9608C25.4165 12.0856 25.0572 12.148 24.6511 12.148C24.12 12.148 23.6514 12.0544 23.2765 11.8672C22.886 11.6801 22.558 11.415 22.2612 11.0875L22.4174 10.838C22.4643 10.7756 22.5112 10.76 22.5736 10.76C22.6049 10.76 22.6517 10.7756 22.6986 10.8224C22.7455 10.8692 22.8236 10.9316 22.886 10.994C22.9641 11.0563 23.0579 11.1343 23.1672 11.2123C23.2765 11.2903 23.4015 11.3682 23.5421 11.4306C23.6827 11.493 23.8389 11.5554 24.0263 11.6021C24.2138 11.6489 24.4168 11.6645 24.6511 11.6645C24.9791 11.6645 25.2603 11.6177 25.5102 11.5242C25.7602 11.4306 25.9788 11.2903 26.1507 11.1343C26.3225 10.9784 26.4631 10.76 26.5568 10.5417C26.6505 10.3078 26.6974 10.0583 26.6974 9.80877C26.6974 9.52807 26.6349 9.29415 26.5255 9.10701C26.4162 8.91988 26.26 8.76394 26.0569 8.63918C25.8695 8.51442 25.6508 8.40526 25.4009 8.32729C25.151 8.24931 24.901 8.15575 24.6511 8.07777C24.4012 7.9998 24.1513 7.90623 23.9014 7.81267C23.6514 7.7191 23.4484 7.59434 23.2453 7.4384C23.0579 7.28245 22.9017 7.09532 22.7767 6.8614C22.6674 6.62748 22.6049 6.34678 22.6049 5.98811C22.6049 5.723 22.6517 5.45789 22.7611 5.20838C22.8704 4.95887 23.011 4.74054 23.2141 4.53781C23.4171 4.35068 23.6514 4.19473 23.9482 4.06998C24.245 3.96082 24.573 3.89844 24.9479 3.89844C25.3697 3.89844 25.7445 3.96082 26.0882 4.10117C26.4162 4.24152 26.7286 4.44425 27.0098 4.70935L26.8536 4.99006Z" fill="black"/>
<path d="M24.6198 12.2882C24.0731 12.2882 23.5889 12.1946 23.1984 11.9919C22.8079 11.8047 22.4486 11.524 22.1518 11.1966L22.105 11.1498L22.308 10.8379C22.4018 10.7287 22.4799 10.7131 22.5423 10.7131C22.6048 10.7131 22.6673 10.7443 22.7298 10.8067C22.7766 10.8535 22.8548 10.9159 22.9329 10.9782C23.011 11.0406 23.1047 11.1186 23.1984 11.1966C23.3077 11.2745 23.4171 11.3369 23.5577 11.3993C23.6982 11.4617 23.8544 11.524 24.0263 11.5552C24.1981 11.602 24.4012 11.6176 24.6355 11.6176C24.9479 11.6176 25.229 11.5708 25.4633 11.4773C25.6976 11.3837 25.9007 11.2589 26.0725 11.103C26.2287 10.947 26.3693 10.7599 26.4474 10.5416C26.5411 10.3233 26.5724 10.0893 26.5724 9.83984C26.5724 9.57473 26.5255 9.35641 26.4162 9.18487C26.3068 9.01333 26.1662 8.87297 25.9788 8.74822C25.7914 8.62346 25.5883 8.52989 25.354 8.45192C25.1197 8.37395 24.8698 8.28038 24.6042 8.20241C24.3387 8.12444 24.0887 8.03087 23.8544 7.9373C23.6045 7.82814 23.3702 7.70338 23.1828 7.54744C22.9797 7.39149 22.8235 7.17317 22.6985 6.93925C22.5736 6.68974 22.5111 6.39344 22.5111 6.03477C22.5111 5.75407 22.558 5.47336 22.6673 5.20826C22.7766 4.94315 22.9329 4.70923 23.1359 4.5065C23.339 4.30377 23.6045 4.14783 23.9013 4.02307C24.1981 3.89832 24.5574 3.83594 24.9322 3.83594C25.3696 3.83594 25.7601 3.89832 26.1038 4.03867C26.4474 4.17902 26.7598 4.39734 27.0566 4.67804L27.1034 4.72483L26.9316 5.05231C26.8379 5.22385 26.6661 5.27064 26.4474 5.06791C26.3693 5.00553 26.2756 4.92756 26.135 4.84958C26.01 4.77161 25.8382 4.69364 25.6508 4.61566C25.4633 4.55329 25.229 4.5065 24.9322 4.5065C24.6511 4.5065 24.4012 4.55329 24.1825 4.63126C23.9794 4.70923 23.792 4.81839 23.6514 4.95874C23.5108 5.0991 23.4015 5.25504 23.3234 5.42658C23.2453 5.59812 23.214 5.80085 23.214 5.98798C23.214 6.2375 23.2609 6.45582 23.3702 6.61177C23.4796 6.78331 23.6201 6.92366 23.8076 7.04841C23.995 7.17317 24.1981 7.26674 24.4324 7.3603C24.6667 7.43828 24.9166 7.53184 25.1822 7.60982C25.4321 7.68779 25.6976 7.78136 25.9319 7.89052C26.1819 7.99968 26.4162 8.12444 26.6036 8.28038C26.8067 8.43633 26.9629 8.63906 27.0878 8.87297C27.2128 9.10689 27.2753 9.40319 27.2753 9.74627C27.2753 10.0893 27.2128 10.4324 27.0878 10.7443C26.9629 11.0562 26.791 11.3213 26.5567 11.5552C26.3224 11.7892 26.0413 11.9607 25.7132 12.101C25.4321 12.2102 25.0416 12.2882 24.6198 12.2882ZM22.3549 11.1186C22.6204 11.4149 22.9329 11.6488 23.2921 11.8203C23.667 12.0075 24.12 12.101 24.6355 12.101C25.026 12.101 25.3852 12.0387 25.6976 11.9139C26.01 11.7892 26.26 11.6176 26.4786 11.4149C26.6817 11.2122 26.8535 10.947 26.9629 10.6663C27.0722 10.3856 27.1347 10.0738 27.1347 9.74627C27.1347 9.43438 27.0722 9.16927 26.9785 8.95095C26.8691 8.74822 26.7286 8.56108 26.5411 8.42073C26.3537 8.28038 26.1506 8.15563 25.9163 8.04646C25.682 7.9529 25.4321 7.85933 25.1822 7.76576C24.9322 7.68779 24.6823 7.59422 24.4324 7.51625C24.1825 7.42268 23.9638 7.31352 23.7607 7.18876C23.5577 7.06401 23.4015 6.89247 23.2765 6.70533C23.1515 6.5182 23.0891 6.26869 23.0891 5.97239C23.0891 5.75407 23.1359 5.53574 23.214 5.33301C23.2921 5.13028 23.4171 4.94315 23.5733 4.8028C23.7295 4.64685 23.9325 4.5221 24.1668 4.44412C24.4012 4.35056 24.6823 4.31937 24.9791 4.31937C25.2759 4.31937 25.5414 4.35056 25.7601 4.42853C25.9632 4.5065 26.1506 4.58448 26.2756 4.67804C26.4162 4.77161 26.5255 4.84958 26.6036 4.92756C26.6973 5.00553 26.7286 5.00553 26.7286 5.00553C26.7442 5.00553 26.7754 5.00553 26.791 4.95874L26.9004 4.75602C26.6505 4.5221 26.3693 4.33496 26.0725 4.21021C25.7445 4.08545 25.3852 4.02307 24.9791 4.02307C24.6198 4.02307 24.2918 4.08545 24.0106 4.19461C23.7295 4.30377 23.4952 4.45972 23.3077 4.63126C23.1203 4.81839 22.9797 5.02112 22.8704 5.27064C22.7766 5.50455 22.7298 5.75407 22.7298 6.01917C22.7298 6.34666 22.7923 6.62736 22.9016 6.84568C23.011 7.06401 23.1515 7.25114 23.339 7.39149C23.5264 7.53184 23.7295 7.6566 23.9638 7.75017C24.1981 7.84373 24.448 7.9373 24.6979 8.01528C24.9479 8.09325 25.1978 8.17122 25.4477 8.26479C25.6976 8.35835 25.9163 8.45192 26.1194 8.59227C26.3224 8.71703 26.4943 8.88857 26.6036 9.0913C26.7286 9.29403 26.791 9.54354 26.791 9.85543C26.791 10.1361 26.7442 10.3856 26.6505 10.6352C26.5567 10.8847 26.4162 11.0874 26.2287 11.2589C26.0413 11.4305 25.8226 11.5708 25.557 11.68C25.2915 11.7736 24.9947 11.8359 24.6667 11.8359C24.4324 11.8359 24.2137 11.8047 24.0106 11.758C23.8232 11.7112 23.6514 11.6488 23.5108 11.5864C23.3702 11.524 23.2296 11.4461 23.1203 11.3525C23.011 11.2745 22.9172 11.1966 22.8391 11.1342C22.761 11.0718 22.6985 11.0094 22.6517 10.9626C22.6048 10.9159 22.5736 10.9159 22.5736 10.9159C22.558 10.9159 22.5267 10.9159 22.4955 10.9626L22.3549 11.1186Z" fill="black"/>
<path d="M36.1475 8.04659C36.1475 8.67037 36.0538 9.23177 35.8664 9.74639C35.6789 10.261 35.4134 10.6977 35.0697 11.0563C34.7261 11.415 34.32 11.6957 33.8514 11.8984C33.3828 12.1012 32.8517 12.1947 32.2737 12.1947C31.7114 12.1947 31.1803 12.1012 30.7117 11.8984C30.2431 11.6957 29.837 11.4306 29.4933 11.0563C29.1497 10.6977 28.8841 10.261 28.6967 9.74639C28.5092 9.23177 28.4155 8.67037 28.4155 8.04659C28.4155 7.4228 28.5092 6.8614 28.6967 6.34678C28.8841 5.83216 29.1497 5.39551 29.4933 5.03684C29.837 4.67816 30.2431 4.39746 30.7117 4.19473C31.1803 3.992 31.7114 3.89844 32.2737 3.89844C32.8517 3.89844 33.3828 3.992 33.8514 4.19473C34.32 4.39746 34.7261 4.66257 35.0697 5.03684C35.4134 5.39551 35.6789 5.83216 35.8664 6.34678C36.0538 6.8614 36.1475 7.4228 36.1475 8.04659ZM35.5383 8.04659C35.5383 7.48518 35.4602 6.97056 35.304 6.51832C35.1478 6.06608 34.9292 5.69181 34.648 5.37992C34.3668 5.06803 34.0232 4.83411 33.6171 4.66257C33.2109 4.49103 32.7736 4.41306 32.2893 4.41306C31.8051 4.41306 31.3677 4.49103 30.9616 4.66257C30.5555 4.83411 30.2119 5.06803 29.9307 5.37992C29.6495 5.69181 29.4152 6.06608 29.259 6.51832C29.1028 6.97056 29.0247 7.46959 29.0247 8.04659C29.0247 8.60799 29.1028 9.12261 29.259 9.57485C29.4152 10.0271 29.6339 10.4014 29.9307 10.7133C30.2119 11.0251 30.5555 11.2591 30.9616 11.4306C31.3677 11.6021 31.8051 11.6801 32.2893 11.6801C32.7736 11.6801 33.2266 11.6021 33.6171 11.4306C34.0232 11.2747 34.3668 11.0251 34.648 10.7133C34.9292 10.4014 35.1478 10.0271 35.304 9.57485C35.4602 9.12261 35.5383 8.62358 35.5383 8.04659Z" fill="black"/>
<path d="M32.2893 12.2725C31.7114 12.2725 31.1647 12.1634 30.6961 11.9762C30.2118 11.7735 29.7901 11.4928 29.4464 11.1185C29.1028 10.7443 28.8216 10.3076 28.6342 9.7774C28.4467 9.26278 28.3374 8.67018 28.3374 8.0464C28.3374 7.42262 28.4311 6.83003 28.6342 6.31541C28.8216 5.80079 29.1028 5.34855 29.4464 4.97428C29.7901 4.60001 30.2118 4.31931 30.6961 4.11658C31.1803 3.91385 31.7114 3.80469 32.2893 3.80469C32.8829 3.80469 33.414 3.91385 33.8982 4.10098C34.3824 4.30371 34.8042 4.58441 35.1478 4.95868C35.4915 5.33295 35.7726 5.78519 35.9601 6.29981C36.1475 6.81443 36.2412 7.39143 36.2412 8.03081C36.2412 8.67018 36.1475 9.24718 35.9601 9.7618C35.7726 10.2764 35.4915 10.7287 35.1478 11.1029C34.8042 11.4772 34.3824 11.7579 33.8982 11.9606C33.414 12.179 32.8673 12.2725 32.2893 12.2725ZM32.2893 4.00742C31.7426 4.00742 31.2271 4.10098 30.7585 4.30371C30.3055 4.49085 29.8994 4.77155 29.5714 5.11463C29.2434 5.45771 28.9778 5.89436 28.806 6.39338C28.6186 6.89241 28.5248 7.45381 28.5248 8.062C28.5248 8.67018 28.6186 9.23159 28.806 9.73061C28.9935 10.2296 29.2434 10.6507 29.5714 11.0094C29.8994 11.3524 30.3055 11.6331 30.7585 11.8203C31.2115 12.0074 31.727 12.101 32.2893 12.101C32.8516 12.101 33.3671 12.0074 33.8201 11.8203C34.2731 11.6331 34.6792 11.3524 35.0072 11.0094C35.3353 10.6663 35.6008 10.2296 35.7726 9.74621C35.9601 9.24718 36.0538 8.68578 36.0538 8.07759C36.0538 7.4694 35.9601 6.908 35.7726 6.40898C35.5852 5.90995 35.3353 5.4889 35.0072 5.13022C34.6792 4.78714 34.2731 4.50644 33.8201 4.31931C33.3671 4.10098 32.8516 4.00742 32.2893 4.00742Z" fill="black"/>
<path d="M40.7866 11.6803C41.1772 11.6803 41.5208 11.6179 41.8332 11.4776C42.1456 11.3372 42.3955 11.1501 42.6142 10.9162C42.8329 10.6823 42.9891 10.386 43.0984 10.0741C43.2078 9.7466 43.2703 9.40352 43.2703 9.01366V4.00781H43.8482V9.01366C43.8482 9.4659 43.7701 9.87136 43.6295 10.2612C43.4889 10.6511 43.2859 10.9786 43.0203 11.2749C42.7548 11.5556 42.4268 11.7895 42.0519 11.9454C41.677 12.1014 41.2396 12.1949 40.771 12.1949C40.3024 12.1949 39.8651 12.117 39.4902 11.9454C39.1153 11.7739 38.7873 11.5556 38.5217 11.2749C38.2562 10.9942 38.0531 10.6511 37.9125 10.2612C37.7719 9.87136 37.6938 9.45031 37.6938 9.01366V4.00781H38.2874V8.99807C38.2874 9.37233 38.3499 9.73101 38.4592 10.0585C38.5686 10.386 38.7404 10.6667 38.9435 10.9006C39.1621 11.1345 39.4121 11.3217 39.7245 11.462C40.0369 11.6179 40.3961 11.6803 40.7866 11.6803Z" fill="black"/>
<path d="M40.7866 12.2883C40.3024 12.2883 39.865 12.2104 39.4745 12.0388C39.084 11.8673 38.7404 11.6334 38.4748 11.3371C38.2093 11.0408 37.9906 10.6821 37.85 10.2922C37.7095 9.90237 37.6313 9.46572 37.6313 9.01348V3.91406H38.4124V9.01348C38.4124 9.37215 38.4748 9.71523 38.5686 10.0427C38.6779 10.3546 38.8341 10.6353 39.0372 10.8536C39.2402 11.0876 39.4902 11.2591 39.7869 11.3994C40.0837 11.5242 40.4117 11.6022 40.7866 11.6022C41.1615 11.6022 41.5052 11.5398 41.7863 11.415C42.0831 11.2903 42.333 11.1031 42.5361 10.8692C42.7392 10.6353 42.8954 10.3702 43.0047 10.0583C43.114 9.74642 43.1609 9.40334 43.1609 9.02907V3.91406H43.9419V9.01348C43.9419 9.46572 43.8638 9.90237 43.7232 10.2922C43.5827 10.6821 43.364 11.0408 43.0984 11.3371C42.8329 11.6334 42.4892 11.8673 42.0987 12.0388C41.7082 12.2104 41.2709 12.2883 40.7866 12.2883ZM37.8032 4.1012V9.01348C37.8032 9.45012 37.8657 9.85558 38.0062 10.2299C38.1468 10.6041 38.3343 10.9316 38.5998 11.2123C38.8497 11.493 39.1621 11.7113 39.537 11.8673C39.8963 12.0232 40.318 12.1012 40.7866 12.1012C41.2396 12.1012 41.6614 12.0232 42.0362 11.8673C42.3955 11.7113 42.7235 11.493 42.9735 11.2123C43.2234 10.9316 43.4264 10.6041 43.567 10.2299C43.7076 9.85558 43.7701 9.45012 43.7701 9.01348V4.1012H43.3796V9.01348C43.3796 9.40334 43.3171 9.76202 43.2078 10.1051C43.0984 10.4482 42.9266 10.7445 42.6923 10.994C42.4736 11.2435 42.1925 11.4462 41.88 11.5866C41.5676 11.7269 41.1928 11.8049 40.8023 11.8049C40.3961 11.8049 40.0369 11.7269 39.7245 11.5866C39.4121 11.4462 39.1309 11.2435 38.9122 10.994C38.6935 10.7445 38.5217 10.4482 38.4124 10.1051C38.303 9.77761 38.2405 9.40334 38.2405 9.01348V4.1012H37.8032Z" fill="black"/>
<path d="M47.2071 8.00002C47.3633 8.00002 47.3476 8.00002 47.3476 8.00002H47.6913C48.0506 8.00002 48.3786 7.95323 48.6597 7.87526C48.9409 7.78169 49.1908 7.67253 49.3783 7.50099C49.5813 7.34504 49.7219 7.14232 49.8313 6.92399C49.9406 6.70567 49.9875 6.44056 49.9875 6.15986C49.9875 5.58286 49.8 5.16181 49.4251 4.88111C49.0502 4.6004 48.5035 4.46005 47.7694 4.46005H46.2855V8.00002V8.43666V12.1014H45.7075V4.00781H47.7694C48.7066 4.00781 49.4095 4.19495 49.8625 4.55362C50.3311 4.9123 50.5498 5.44251 50.5498 6.14426C50.5498 6.45616 50.5029 6.73686 50.3936 6.98637C50.2842 7.23588 50.128 7.4698 49.925 7.65693C49.7219 7.84407 49.4876 8.01561 49.2064 8.12477C48.9253 8.24953 48.5973 8.3275 48.2536 8.37428C48.3473 8.43666 48.4254 8.51464 48.5035 8.6082L51.2996 12.1014H50.7841C50.7216 12.1014 50.6747 12.0858 50.6279 12.0702C50.581 12.0546 50.5342 12.0078 50.5029 11.961L47.91 8.68618C47.8475 8.6082 47.7694 8.54582 47.7069 8.51463C47.6288 8.48345 47.1758 8.46785 47.0196 8.46785C47.0196 8.0468 47.0821 8.00002 47.2071 8.00002Z" fill="black"/>
<path d="M51.5026 12.1948H50.7997C50.7216 12.1948 50.6591 12.1792 50.5966 12.148C50.5341 12.1168 50.4873 12.07 50.4404 12.0076L47.8475 8.73278C47.785 8.6548 47.7381 8.60802 47.6756 8.57683C47.6132 8.56124 47.2383 8.53005 47.0352 8.53005H46.9415V8.12459C46.9415 7.98424 46.9727 7.90627 47.2227 7.90627C47.3632 7.90627 47.3789 7.90627 47.3789 7.90627H47.7225C48.0661 7.90627 48.3785 7.85948 48.6597 7.78151C48.9253 7.70354 49.1596 7.57878 49.347 7.42283C49.5344 7.26689 49.675 7.09535 49.7687 6.87703C49.8625 6.6587 49.9093 6.42478 49.9093 6.15968C49.9093 5.61387 49.7375 5.224 49.3782 4.9589C49.019 4.69379 48.4879 4.55344 47.785 4.55344H46.3948V12.1792H45.6138V3.91406H47.785C48.7378 3.91406 49.4563 4.1012 49.9406 4.47547C50.4248 4.84974 50.6747 5.41114 50.6747 6.14408C50.6747 6.47157 50.6122 6.76786 50.5029 7.03297C50.3936 7.29808 50.2217 7.532 50.0187 7.73472C49.8156 7.93745 49.5501 8.0934 49.2689 8.23375C49.0346 8.32732 48.7847 8.40529 48.5035 8.45207C48.5347 8.48326 48.566 8.51445 48.5972 8.56124L51.5026 12.1948ZM47.1133 8.34291C47.2851 8.34291 47.6444 8.35851 47.7381 8.40529C47.8318 8.45207 47.9099 8.51445 47.988 8.60802L50.581 11.8829C50.6122 11.9297 50.6435 11.9608 50.6747 11.9764C50.706 11.992 50.7372 12.0076 50.7841 12.0076H51.0965L48.4254 8.6704C48.3629 8.57683 48.2848 8.51445 48.2067 8.46767L47.9724 8.32732L48.2536 8.29613C48.5972 8.26494 48.9096 8.18697 49.1752 8.06221C49.4407 7.93745 49.675 7.7971 49.8781 7.60997C50.0655 7.42283 50.2217 7.22011 50.3155 6.97059C50.4092 6.72108 50.4717 6.45597 50.4717 6.15968C50.4717 5.48911 50.253 4.99009 49.8156 4.64701C49.3782 4.30393 48.691 4.13239 47.785 4.13239H45.8168V12.0076H46.2073V4.3663H47.785C48.5191 4.3663 49.0971 4.50665 49.4876 4.80295C49.8937 5.09925 50.0968 5.55149 50.0968 6.15968C50.0968 6.45597 50.0343 6.72108 49.9406 6.955C49.8312 7.18892 49.675 7.39165 49.4563 7.56319C49.2533 7.73473 49.0034 7.85948 48.7066 7.95305C48.4098 8.04662 48.0818 8.0934 47.7069 8.0934H47.3632C47.3476 8.0934 47.332 8.0934 47.2227 8.0934C47.1758 8.0934 47.1289 8.0934 47.1133 8.34291Z" fill="black"/>
<path d="M58.1567 10.7288C58.188 10.7288 58.2348 10.7444 58.2505 10.7756L58.4848 11.0251C58.3129 11.1967 58.1411 11.3682 57.9381 11.5086C57.735 11.6489 57.5163 11.7737 57.282 11.8672C57.0477 11.9608 56.7822 12.0388 56.5166 12.1012C56.2355 12.1635 55.9231 12.1791 55.595 12.1791C55.0327 12.1791 54.5172 12.0856 54.0486 11.8828C53.58 11.6801 53.1739 11.415 52.8459 11.0407C52.5178 10.6821 52.2523 10.2454 52.0649 9.7308C51.8774 9.21618 51.7837 8.65477 51.7837 8.03099C51.7837 7.4228 51.8774 6.8614 52.0805 6.34678C52.2679 5.83216 52.5491 5.41111 52.8927 5.03684C53.2364 4.67816 53.6581 4.39746 54.1423 4.19473C54.6266 3.992 55.1733 3.89844 55.7512 3.89844C56.048 3.89844 56.3136 3.91403 56.5635 3.96082C56.8134 4.0076 57.0321 4.06998 57.2508 4.14795C57.4694 4.22592 57.6569 4.33508 57.8443 4.45984C58.0318 4.5846 58.2192 4.72495 58.391 4.88089L58.2192 5.13041C58.188 5.17719 58.1411 5.19278 58.0786 5.19278C58.0474 5.19278 58.0005 5.17719 57.9537 5.13041C57.9068 5.08362 57.8287 5.03684 57.7506 4.97446C57.6725 4.91208 57.5632 4.8497 57.4538 4.78733C57.3445 4.70935 57.2039 4.64698 57.0321 4.60019C56.8759 4.53781 56.6884 4.49103 56.4698 4.44425C56.2667 4.39746 56.0168 4.38187 55.7512 4.38187C55.2514 4.38187 54.7984 4.45984 54.3923 4.63138C53.9861 4.80292 53.6269 5.03684 53.3301 5.36432C53.0333 5.67622 52.799 6.06608 52.6272 6.50273C52.4554 6.93937 52.3773 7.45399 52.3773 8.0154C52.3773 8.59239 52.4554 9.09142 52.6272 9.54366C52.799 9.9959 53.0177 10.3702 53.3145 10.6821C53.6113 10.994 53.9549 11.2279 54.3454 11.3994C54.7359 11.571 55.1733 11.6489 55.6263 11.6489C55.923 11.6489 56.173 11.6333 56.4073 11.5865C56.6416 11.5554 56.8446 11.493 57.0321 11.415C57.2195 11.337 57.407 11.2435 57.5632 11.1343C57.735 11.0251 57.8912 10.9004 58.0474 10.7444C58.063 10.7288 58.0786 10.7133 58.0943 10.7133C58.1099 10.7444 58.1411 10.7288 58.1567 10.7288Z" fill="black"/>
<path d="M55.5794 12.2881C55.0014 12.2881 54.4703 12.179 54.0017 11.9919C53.5175 11.7891 53.1114 11.5084 52.7677 11.1342C52.4241 10.7599 52.1585 10.3232 51.9711 9.79302C51.7837 9.2784 51.6899 8.68581 51.6899 8.06203C51.6899 7.43825 51.7837 6.86125 51.9867 6.34663C52.1898 5.83201 52.4709 5.37977 52.8146 5.0055C53.1739 4.63123 53.6112 4.33493 54.0955 4.1322C54.5953 3.92947 55.142 3.82031 55.7512 3.82031C56.048 3.82031 56.3291 3.83591 56.5791 3.88269C56.829 3.92947 57.0633 3.99185 57.282 4.06983C57.5007 4.1478 57.7037 4.25696 57.8912 4.38172C58.0786 4.50647 58.266 4.64682 58.4535 4.81836L58.516 4.88074L58.2973 5.20823C58.266 5.25501 58.2036 5.31739 58.0786 5.31739C58.0161 5.31739 57.9693 5.2862 57.8912 5.23942C57.8443 5.19263 57.7662 5.14585 57.6881 5.09907C57.61 5.03669 57.5163 4.97431 57.3913 4.91193C57.282 4.84955 57.1414 4.78717 56.9852 4.7248C56.829 4.66242 56.6415 4.61563 56.4385 4.58445C56.2354 4.55326 56.0011 4.52207 55.7356 4.52207C55.2513 4.52207 54.814 4.60004 54.4079 4.77158C54.0174 4.94312 53.6581 5.17704 53.3769 5.47333C53.0958 5.76963 52.8615 6.1439 52.7053 6.58055C52.5491 7.01719 52.4553 7.51622 52.4553 8.04643C52.4553 8.60784 52.5334 9.10686 52.6896 9.54351C52.8458 9.98016 53.0645 10.3544 53.3457 10.6507C53.6268 10.947 53.9549 11.1809 54.3454 11.3369C54.7203 11.4928 55.142 11.5708 55.595 11.5708C55.8762 11.5708 56.1417 11.5552 56.3604 11.5084C56.5791 11.4772 56.7821 11.4149 56.9696 11.3369C57.157 11.2589 57.3288 11.1653 57.485 11.0718C57.6412 10.9626 57.7974 10.8379 57.9536 10.6975C57.9849 10.6663 58.0005 10.6663 58.0317 10.6507C58.1098 10.6039 58.2348 10.6195 58.2973 10.6975L58.5941 11.0094L58.5316 11.0718C58.3598 11.2589 58.1723 11.4149 57.9693 11.5708C57.7662 11.7112 57.5475 11.8515 57.2976 11.9451C57.0633 12.0542 56.7977 12.1322 56.501 12.179C56.2354 12.257 55.923 12.2881 55.5794 12.2881ZM55.7512 4.00745C55.1732 4.00745 54.6422 4.10101 54.1736 4.30374C53.7049 4.49088 53.2832 4.77158 52.9552 5.13025C52.6115 5.48893 52.346 5.90998 52.1585 6.40901C51.9711 6.90803 51.8774 7.45384 51.8774 8.06203C51.8774 8.67022 51.9711 9.23162 52.1585 9.73064C52.346 10.2297 52.5959 10.6507 52.9239 11.0094C53.252 11.3525 53.6425 11.6332 54.0955 11.8203C54.5484 12.0074 55.0483 12.101 55.595 12.101C55.923 12.101 56.2198 12.0698 56.501 12.023C56.7665 11.9763 57.0321 11.8983 57.2507 11.7891C57.485 11.6956 57.6881 11.5708 57.8755 11.4305C58.0474 11.3057 58.2036 11.1653 58.3441 11.025L58.1723 10.8379C58.1567 10.8223 58.1411 10.8223 58.1255 10.8379C58.1098 10.8379 58.0942 10.8535 58.0786 10.869C57.9224 11.0094 57.7506 11.1497 57.5788 11.2589C57.4069 11.3681 57.2195 11.4772 57.0321 11.5552C56.829 11.6332 56.6103 11.6956 56.3916 11.7267C56.1573 11.7579 55.8918 11.7891 55.595 11.7891C55.1264 11.7891 54.6734 11.6956 54.2673 11.5396C53.8612 11.3681 53.5019 11.1186 53.2051 10.8067C52.9083 10.4948 52.674 10.0893 52.5022 9.63708C52.3304 9.18484 52.2523 8.65462 52.2523 8.07762C52.2523 7.51622 52.3304 7.0016 52.5022 6.53376C52.674 6.08152 52.9083 5.67606 53.2207 5.36417C53.5331 5.03669 53.8924 4.78717 54.3141 4.61563C54.7359 4.44409 55.2045 4.35053 55.7043 4.35053C55.9699 4.35053 56.2198 4.36612 56.4385 4.41291C56.6572 4.45969 56.8446 4.50647 57.0164 4.56885C57.1883 4.63123 57.3288 4.69361 57.4538 4.77158C57.5788 4.84955 57.6725 4.91193 57.7506 4.97431C57.8287 5.03669 57.9068 5.08347 57.9536 5.13025C58.0005 5.17704 58.0317 5.17704 58.0317 5.17704C58.0786 5.17704 58.0942 5.16144 58.0942 5.14585L58.2192 4.95871C58.063 4.81836 57.9068 4.7092 57.7506 4.60004C57.5631 4.47528 57.3757 4.38172 57.1726 4.30374C56.9696 4.22577 56.7353 4.16339 56.501 4.11661C56.2979 4.03864 56.0324 4.00745 55.7512 4.00745Z" fill="black"/>
<path d="M64.8261 4.00781V4.49124H60.5618V7.7661H64.1076V8.23393H60.5618V11.6024H64.8261V12.0858H59.9683V4.00781H64.8261Z" fill="black"/>
<path d="M64.9198 12.1948H59.8745V3.91406H64.9198V4.58463H60.6555V7.65675H64.2013V8.32732H60.6555V11.5086H64.9198V12.1948ZM60.062 12.0076H64.7324V11.7113H60.4681V8.14018H64.0139V7.85948H60.4681V4.39749H64.7324V4.1012H60.062V12.0076Z" fill="black"/>
<path d="M72.0897 3.91406V5.14603H68.419V7.59437H71.5118V8.82634H68.419V12.1948H66.8726V3.92966H72.0897V3.91406Z" fill="black"/>
<path d="M81.0712 8.04643C81.0712 8.65462 80.9774 9.21602 80.7744 9.73064C80.5713 10.2453 80.2901 10.6975 79.9153 11.0718C79.556 11.446 79.103 11.7423 78.5875 11.9607C78.0721 12.179 77.4941 12.2726 76.8693 12.2726C76.2445 12.2726 75.6666 12.1634 75.1511 11.9607C74.6356 11.7423 74.1983 11.4616 73.8234 11.0718C73.4485 10.6975 73.1673 10.2453 72.9643 9.73064C72.7612 9.21602 72.6675 8.65462 72.6675 8.04643C72.6675 7.43825 72.7612 6.87684 72.9643 6.36222C73.1673 5.8476 73.4485 5.39536 73.8234 5.02109C74.1983 4.64682 74.6356 4.35053 75.1511 4.1322C75.6666 3.91388 76.2445 3.82031 76.8693 3.82031C77.4941 3.82031 78.0721 3.92947 78.5875 4.1478C79.103 4.36612 79.5404 4.66242 79.9153 5.03669C80.2745 5.41096 80.5713 5.8632 80.7744 6.37782C80.9618 6.87684 81.0712 7.43825 81.0712 8.04643ZM79.4935 8.04643C79.4935 7.59419 79.431 7.18873 79.3061 6.83006C79.1811 6.47138 79.0093 6.15949 78.7906 5.90998C78.5719 5.66047 78.2908 5.47333 77.9627 5.33298C77.6347 5.19263 77.2754 5.13025 76.8693 5.13025C76.4632 5.13025 76.1039 5.19263 75.7759 5.33298C75.4479 5.47333 75.1823 5.66047 74.948 5.90998C74.7137 6.15949 74.5419 6.47138 74.4169 6.83006C74.292 7.18873 74.2295 7.59419 74.2295 8.04643C74.2295 8.49867 74.292 8.90413 74.4169 9.26281C74.5419 9.62148 74.7137 9.93337 74.948 10.1829C75.1823 10.4324 75.4479 10.6195 75.7759 10.7599C76.1039 10.9002 76.4632 10.9626 76.8693 10.9626C77.2754 10.9626 77.6347 10.9002 77.9627 10.7599C78.2908 10.6195 78.5563 10.4324 78.7906 10.1829C79.0093 9.93337 79.1811 9.62148 79.3061 9.26281C79.431 8.90413 79.4935 8.49867 79.4935 8.04643Z" fill="black"/>
<path d="M84.2889 7.85951H84.6482C84.9449 7.85951 85.1949 7.82832 85.4135 7.75035C85.6322 7.67238 85.8041 7.57881 85.9446 7.45405C86.0852 7.3293 86.1946 7.17335 86.257 7.00181C86.3195 6.83027 86.3664 6.62754 86.3664 6.42481C86.3664 6.00376 86.2258 5.67628 85.9446 5.45795C85.6635 5.23963 85.2417 5.11487 84.6794 5.11487H83.6797V7.85951V8.96672V12.1948H82.1333V3.92969H84.6638C85.2261 3.92969 85.7103 3.99207 86.1165 4.10123C86.5226 4.21039 86.8506 4.38193 87.1005 4.58466C87.3505 4.78739 87.5535 5.05249 87.6629 5.3332C87.7878 5.62949 87.8503 5.94138 87.8503 6.30006C87.8503 6.58076 87.8034 6.84587 87.7253 7.09538C87.6472 7.34489 87.5223 7.56322 87.3661 7.76594C87.2099 7.96867 87.0224 8.14021 86.7881 8.29616C86.5538 8.45211 86.3039 8.57686 86.0071 8.65483C86.1946 8.764 86.3664 8.91994 86.507 9.12267L88.5845 12.1792H87.1943C87.0537 12.1792 86.9443 12.148 86.8506 12.1012C86.7569 12.0544 86.6788 11.9765 86.6163 11.8673L84.8825 9.21624C84.8356 9.15386 84.7419 9.01351 84.6482 8.99791C84.4607 8.99791 84.2733 8.99791 84.1015 8.99791C84.1015 8.99791 84.1015 8.06224 84.1015 7.99986C84.1171 7.85951 84.2889 7.85951 84.2889 7.85951Z" fill="black"/>
<path d="M93.1144 11.0561C93.4581 11.0561 93.7705 11.0249 94.0204 10.9626C94.2703 10.9002 94.5202 10.8066 94.7545 10.6974V8.8261H93.7236C93.6299 8.8261 93.5518 8.79491 93.4893 8.74813C93.4268 8.68575 93.3956 8.62337 93.3956 8.5454V7.6721H96.1447V11.3836C95.9417 11.5395 95.723 11.6643 95.4887 11.7735C95.2544 11.8826 95.0201 11.9762 94.7545 12.0542C94.489 12.1321 94.2234 12.1789 93.9267 12.2101C93.6299 12.2413 93.3175 12.2569 92.9738 12.2569C92.3646 12.2569 91.8179 12.1477 91.3025 11.945C90.787 11.7423 90.3496 11.446 89.9904 11.0717C89.6155 10.6974 89.3343 10.2452 89.1156 9.73058C88.9126 9.21596 88.8032 8.63897 88.8032 8.03078C88.8032 7.407 88.8969 6.84559 89.1 6.31538C89.3031 5.80076 89.5842 5.34852 89.9591 4.97425C90.334 4.59998 90.787 4.30368 91.3181 4.10095C91.8492 3.89822 92.4427 3.78906 93.0988 3.78906C93.7705 3.78906 94.364 3.88263 94.8482 4.08536C95.3481 4.28809 95.7542 4.5532 96.0979 4.86509L95.6449 5.56684C95.5512 5.70719 95.4418 5.78516 95.3012 5.78516C95.2075 5.78516 95.1138 5.75397 95.0201 5.6916C94.8951 5.61362 94.7701 5.55125 94.6452 5.47327C94.5202 5.3953 94.3796 5.33292 94.2234 5.28614C94.0672 5.23936 93.8954 5.19257 93.708 5.16138C93.5205 5.13019 93.2862 5.1146 93.0363 5.1146C92.6302 5.1146 92.2553 5.17698 91.9273 5.31733C91.5992 5.45768 91.3181 5.64481 91.0838 5.90992C90.8495 6.15943 90.6777 6.47132 90.5527 6.83C90.4277 7.18867 90.3652 7.59413 90.3652 8.03078C90.3652 8.51421 90.4277 8.93526 90.5683 9.30953C90.7089 9.6838 90.8963 9.99569 91.1306 10.2452C91.3649 10.4947 91.6617 10.6974 91.9898 10.8378C92.3178 10.9781 92.7239 11.0561 93.1144 11.0561Z" fill="black"/>
<path d="M101.596 8.85753H99.0811V10.9472H102.736V12.1792H97.519V3.91406H102.736V5.14603H99.0654V7.68794H101.955V8.59242C101.955 8.59242 101.94 8.85753 101.596 8.85753Z" fill="black"/>
</g>
<defs>
<clipPath id="clip0_3085_6893">
<rect width="102" height="16" fill="white" transform="translate(0.736816)"/>
</clipPath>
</defs>
</svg>
