<svg width="103" height="24" viewBox="0 0 103 24" fill="none" xmlns="http://www.w3.org/2000/svg">
<g clip-path="url(#clip0_3085_6883)">
<path d="M27.5114 8.57031H37.8274V10.4007H33.7712V20.6899H31.5407V10.4007H27.5024V8.57031H27.5114H27.5114ZM37.3867 11.9145H39.2934V13.608H39.3294C39.3924 13.3686 39.5093 13.1376 39.6802 12.9152C39.8511 12.6929 40.0579 12.479 40.3008 12.2994C40.5436 12.1113 40.8134 11.9659 41.1102 11.8461C41.407 11.7349 41.7128 11.6751 42.0186 11.6751C42.2524 11.6751 42.4233 11.6836 42.5132 11.6922C42.6032 11.7007 42.6931 11.7178 42.7921 11.7264V13.5909C42.6482 13.5653 42.5043 13.5482 42.3514 13.5311C42.1985 13.514 42.0546 13.5054 41.9107 13.5054C41.5689 13.5054 41.2451 13.5738 40.9393 13.7021C40.6335 13.8304 40.3727 14.0271 40.1479 14.2752C39.923 14.5318 39.7431 14.8397 39.6082 15.216C39.4733 15.5923 39.4104 16.02 39.4104 16.5075V20.6814H37.3777V11.9145H37.3867V11.9145ZM52.1367 20.6899H50.1401V19.4669H50.1041C49.8523 19.9116 49.4835 20.2623 48.9888 20.5274C48.4942 20.7926 47.9905 20.9294 47.4779 20.9294C46.2637 20.9294 45.3823 20.6472 44.8427 20.0741C44.303 19.5011 44.0332 18.6372 44.0332 17.4826V11.9145H46.0658V17.2944C46.0658 18.0642 46.2187 18.6116 46.5335 18.928C46.8393 19.2445 47.28 19.407 47.8376 19.407C48.2693 19.407 48.6201 19.3471 48.9079 19.2188C49.1957 19.0905 49.4296 18.928 49.6004 18.7142C49.7803 18.5089 49.9062 18.2523 49.9872 17.9615C50.0681 17.6707 50.1041 17.3543 50.1041 17.0121V11.9231H52.1367V20.6899V20.6899ZM55.5994 17.876C55.6623 18.4405 55.8872 18.8339 56.2739 19.0649C56.6696 19.2872 57.1373 19.407 57.6859 19.407C57.8748 19.407 58.0907 19.3899 58.3335 19.3642C58.5763 19.3386 58.8102 19.2787 59.017 19.2017C59.2329 19.1247 59.4038 19.005 59.5477 18.851C59.6826 18.6971 59.7455 18.5004 59.7366 18.2523C59.7276 18.0043 59.6286 17.799 59.4487 17.6451C59.2689 17.4826 59.044 17.3628 58.7652 17.2602C58.4864 17.1661 58.1716 17.0806 57.8119 17.0121C57.4521 16.9437 57.0923 16.8667 56.7236 16.7898C56.3459 16.7128 55.9771 16.6101 55.6263 16.499C55.2756 16.3878 54.9608 16.2338 54.682 16.0371C54.4032 15.8489 54.1783 15.6009 54.0164 15.3015C53.8456 15.0022 53.7646 14.6344 53.7646 14.1896C53.7646 13.7107 53.8905 13.3172 54.1334 12.9922C54.3762 12.6672 54.691 12.4106 55.0597 12.2139C55.4375 12.0172 55.8512 11.8803 56.3099 11.7948C56.7686 11.7178 57.2093 11.6751 57.623 11.6751C58.0997 11.6751 58.5583 11.7264 58.9901 11.8205C59.4218 11.9145 59.8175 12.0685 60.1683 12.2909C60.519 12.5047 60.8068 12.787 61.0407 13.1291C61.2745 13.4712 61.4184 13.8903 61.4814 14.3778H59.3588C59.2599 13.9159 59.044 13.5995 58.6933 13.4455C58.3425 13.283 57.9378 13.206 57.4881 13.206C57.3442 13.206 57.1733 13.2146 56.9754 13.2403C56.7776 13.2659 56.5977 13.3087 56.4178 13.3686C56.2469 13.4284 56.103 13.5225 55.9771 13.6423C55.8602 13.762 55.7972 13.9159 55.7972 14.1127C55.7972 14.3522 55.8872 14.5403 56.058 14.6857C56.2289 14.8311 56.4538 14.9509 56.7326 15.0535C57.0114 15.1476 57.3262 15.2331 57.6859 15.3015C58.0457 15.37 58.4144 15.4469 58.7922 15.5239C59.1609 15.6009 59.5207 15.7035 59.8805 15.8147C60.2402 15.9259 60.555 16.0799 60.8338 16.2766C61.1126 16.4733 61.3375 16.7128 61.5084 17.0036C61.6792 17.2944 61.7692 17.6622 61.7692 18.0898C61.7692 18.6116 61.6433 19.0478 61.3914 19.4155C61.1396 19.7748 60.8158 20.0741 60.4201 20.2965C60.0244 20.5189 59.5747 20.6899 59.089 20.7926C58.6033 20.8952 58.1177 20.9465 57.641 20.9465C57.0564 20.9465 56.5167 20.8867 56.0221 20.7584C55.5274 20.6301 55.0957 20.4419 54.7359 20.1939C54.3762 19.9373 54.0884 19.6208 53.8815 19.2445C53.6747 18.8681 53.5667 18.4148 53.5488 17.8931H55.5994V17.876ZM62.3088 11.9145H63.8468V9.28021H65.8794V11.9145H67.7141V13.36H65.8794V18.0471C65.8794 18.2523 65.8884 18.4234 65.9064 18.5773C65.9244 18.7227 65.9693 18.851 66.0323 18.9537C66.0952 19.0563 66.1942 19.1333 66.3291 19.1846C66.464 19.2359 66.6349 19.2616 66.8687 19.2616C67.0126 19.2616 67.1565 19.2616 67.3004 19.253C67.4443 19.2445 67.5882 19.2274 67.7321 19.1932V20.6899C67.5073 20.7156 67.2824 20.7327 67.0756 20.7584C66.8597 20.784 66.6439 20.7926 66.419 20.7926C65.8794 20.7926 65.4477 20.7413 65.1239 20.6472C64.8001 20.5531 64.5393 20.4077 64.3594 20.2195C64.1705 20.0314 64.0536 19.8004 63.9817 19.5182C63.9187 19.2359 63.8737 18.9109 63.8647 18.5517V13.3771H62.3268V11.9145H62.3088ZM69.1532 11.9145H71.0778V13.1034H71.1138C71.4016 12.5902 71.7974 12.231 72.31 12.0086C72.8227 11.7862 73.3713 11.6751 73.9739 11.6751C74.7024 11.6751 75.332 11.7948 75.8716 12.0428C76.4112 12.2823 76.8609 12.6159 77.2207 13.0435C77.5804 13.4712 77.8413 13.9673 78.0211 14.5318C78.201 15.0963 78.2909 15.7035 78.2909 16.345C78.2909 16.9352 78.21 17.5082 78.0481 18.0556C77.8862 18.6116 77.6434 19.0991 77.3196 19.5267C76.9958 19.9544 76.5821 20.2879 76.0785 20.5445C75.5748 20.8011 74.9902 20.9294 74.3067 20.9294C74.0099 20.9294 73.7131 20.9038 73.4163 20.8524C73.1195 20.8011 72.8317 20.7156 72.5618 20.6044C72.292 20.4932 72.0312 20.3478 71.8064 20.1682C71.5725 19.9886 71.3836 19.7833 71.2218 19.5524H71.1858V23.9315H69.1532V11.9145V11.9145ZM76.2583 16.3108C76.2583 15.9174 76.2044 15.5325 76.0964 15.1561C75.9885 14.7798 75.8266 14.4548 75.6108 14.164C75.3949 13.8732 75.1251 13.6423 74.8103 13.4712C74.4865 13.3001 74.1178 13.206 73.7041 13.206C72.8496 13.206 72.2021 13.4883 71.7704 14.0528C71.3387 14.6173 71.1228 15.37 71.1228 16.3108C71.1228 16.7556 71.1768 17.1661 71.2937 17.5424C71.4106 17.9188 71.5725 18.2438 71.8064 18.5175C72.0312 18.7912 72.301 19.005 72.6158 19.1589C72.9306 19.3215 73.2993 19.3984 73.7131 19.3984C74.1807 19.3984 74.5675 19.3043 74.8913 19.1247C75.215 18.9451 75.4759 18.7056 75.6827 18.4234C75.8896 18.1326 76.0425 17.8076 76.1324 17.4398C76.2134 17.072 76.2583 16.6957 76.2583 16.3108ZM79.8469 8.57031H81.8795V10.4007H79.8469V8.57031V8.57031ZM79.8469 11.9145H81.8795V20.6899H79.8469V11.9145ZM83.6963 8.57031H85.7289V20.6899H83.6963V8.57031V8.57031ZM91.9617 20.9294C91.2242 20.9294 90.5676 20.8097 89.992 20.5787C89.4164 20.3478 88.9307 20.0228 88.526 19.6208C88.1303 19.2103 87.8245 18.7227 87.6176 18.1582C87.4108 17.5937 87.3028 16.9694 87.3028 16.2937C87.3028 15.6266 87.4108 15.0107 87.6176 14.4462C87.8245 13.8817 88.1303 13.3942 88.526 12.9837C88.9217 12.5731 89.4164 12.2567 89.992 12.0257C90.5676 11.7948 91.2242 11.6751 91.9617 11.6751C92.6992 11.6751 93.3557 11.7948 93.9313 12.0257C94.5069 12.2567 94.9926 12.5817 95.3973 12.9837C95.7931 13.3942 96.0989 13.8817 96.3057 14.4462C96.5126 15.0107 96.6205 15.6266 96.6205 16.2937C96.6205 16.9694 96.5126 17.5937 96.3057 18.1582C96.0989 18.7227 95.7931 19.2103 95.3973 19.6208C95.0016 20.0314 94.5069 20.3478 93.9313 20.5787C93.3557 20.8097 92.6992 20.9294 91.9617 20.9294ZM91.9617 19.3984C92.4114 19.3984 92.8071 19.3043 93.1399 19.1247C93.4726 18.9451 93.7425 18.7056 93.9583 18.4148C94.1742 18.124 94.3271 17.7905 94.435 17.4227C94.5339 17.0549 94.5879 16.6786 94.5879 16.2937C94.5879 15.9174 94.5339 15.5496 94.435 15.1732C94.3361 14.7969 94.1742 14.4719 93.9583 14.1811C93.7425 13.8903 93.4726 13.6594 93.1399 13.4797C92.8071 13.3001 92.4114 13.206 91.9617 13.206C91.512 13.206 91.1162 13.3001 90.7835 13.4797C90.4507 13.6594 90.1809 13.8988 89.965 14.1811C89.7492 14.4719 89.5963 14.7969 89.4883 15.1732C89.3894 15.5496 89.3355 15.9174 89.3355 16.2937C89.3355 16.6786 89.3894 17.0549 89.4883 17.4227C89.5873 17.7905 89.7492 18.124 89.965 18.4148C90.1809 18.7056 90.4507 18.9451 90.7835 19.1247C91.1162 19.3129 91.512 19.3984 91.9617 19.3984ZM97.2141 11.9145H98.7521V9.28021H100.785V11.9145H102.619V13.36H100.785V18.0471C100.785 18.2523 100.794 18.4234 100.812 18.5773C100.83 18.7227 100.875 18.851 100.938 18.9537C101.001 19.0563 101.099 19.1333 101.234 19.1846C101.369 19.2359 101.54 19.2616 101.774 19.2616C101.918 19.2616 102.062 19.2616 102.206 19.253C102.35 19.2445 102.494 19.2274 102.637 19.1932V20.6899C102.413 20.7156 102.188 20.7327 101.981 20.7584C101.765 20.784 101.549 20.7926 101.324 20.7926C100.785 20.7926 100.353 20.7413 100.029 20.6472C99.7054 20.5531 99.4446 20.4077 99.2647 20.2195C99.0758 20.0314 98.9589 19.8004 98.887 19.5182C98.824 19.2359 98.779 18.9109 98.7701 18.5517V13.3771H97.2321V11.9145H97.2141V11.9145Z" fill="#020202"/>
<path d="M25.1372 8.56999H15.8196L12.9415 0.136719L10.0545 8.56999L0.736816 8.56144L8.28269 13.7788L5.39565 22.2035L12.9415 16.9947L20.4784 22.2035L17.6004 13.7788L25.1372 8.56999Z" fill="#24AD7A"/>
<path d="M18.2483 15.6866L17.6007 13.7793L12.9419 16.9952L18.2483 15.6866Z" fill="#0A532C"/>
</g>
<defs>
<clipPath id="clip0_3085_6883">
<rect width="102" height="24" fill="white" transform="translate(0.736816)"/>
</clipPath>
</defs>
</svg>
